<?xml version="1.0" encoding="UTF-8"?>
<svg id="Layer_1" data-name="Layer 1"
    xmlns="http://www.w3.org/2000/svg" viewBox="0 0 304.95 285.2">
    <polygon fill="#2563eb" points="0 69.06 168.67 69.06 167.76 116.08 49.29 116.08 49.74 142.64 104 142.64 104.46 187.53 48.84 187.53 49.29 285.2 0 285.2 0 69.06"/>
    <path fill="#2563eb" d="M120.28,188.89l.45-46.12,28.49-.12s33.46-8.47,37.53-37.86.94,12.53.24-17.25-40.03-39.27-40.03-39.27l-89.99-.83V0l94.96.32s70.99,1.81,87.27,77.32-61.05,104-61.05,104l73.25,103.55h-60.59"/>
    <polygon fill="#2563eb" points="78.03 284.3 125.28 211.04 153.32 247.67 127.32 284.3 78.03 284.3"/>
    <polygon fill="#2563eb" points="304.95 204.88 258.44 278.61 230.04 242.27 255.67 205.38 304.95 204.88"/>
    <rect fill="#2563eb" width="41.15" height="47.35"/>
</svg>